<svg id="Filled_Expand" height="512" viewBox="0 0 64 64" width="512" xmlns="http://www.w3.org/2000/svg" data-name="Filled Expand"><path d="m55.476 36.1-7.071-7.07-15.86 15.9a9.529 9.529 0 0 1 -13.485.009 9.529 9.529 0 0 1 .009-13.485l15.901-15.854-7.07-7.076-17.71 14.3a22.032 22.032 0 0 0 -1.737 32.723 22.032 22.032 0 0 0 32.719-1.736z" fill="#f0466e"/><path d="m48.405 29.03-15.86 15.9a9.529 9.529 0 0 1 -13.485.009l-10.607 10.608a22.032 22.032 0 0 0 32.719-1.736l14.3-17.71z" fill="#84dcff"/><path d="m60.159 10.508a6.246 6.246 0 0 0 -4.866-1.8 6.262 6.262 0 0 0 -10.693-4.867c-4.647 4.647-1.112 16.668-1.112 16.668s12.024 3.535 16.671-1.109a6.285 6.285 0 0 0 0-8.892z" fill="#f0466e"/><path d="m29.305 21.245 5.665-5.65-7.071-7.071-6.259 5.055z" fill="#506480"/><path d="m50.421 42.36 5.055-6.259-7.071-7.071-5.65 5.665z" fill="#506480"/><path d="m42.785 21.215a1 1 0 0 0 .425.253c.514.151 12.648 3.645 17.657-1.364a7.259 7.259 0 0 0 -4.58-12.391 7.259 7.259 0 0 0 -12.387-4.58c-5.009 5.009-1.515 17.143-1.364 17.657a1 1 0 0 0 .249.425zm2.526-16.668a5.261 5.261 0 0 1 8.989 4.093 1.035 1.035 0 0 0 1.06 1.065 5.261 5.261 0 0 1 4.093 8.984c-3.652 3.652-12.833 1.595-15.145 1-.592-2.309-2.649-11.489 1.003-15.142z"/><path d="m49.112 28.323a1 1 0 0 0 -1.415 0l-15.86 15.9a8.529 8.529 0 1 1 -12.062-12.06l15.901-15.863a1 1 0 0 0 0-1.415l-7.07-7.067a1 1 0 0 0 -1.335-.071l-17.711 14.304a23.032 23.032 0 0 0 -1.814 34.2 23.032 23.032 0 0 0 34.2-1.814l14.308-17.707a1 1 0 0 0 -.071-1.336zm-21.284-18.456 5.727 5.733-4.249 4.237-6.172-6.173zm-17.011 13.739 10.752-8.684 6.322 6.322-9.528 9.5a10.528 10.528 0 0 0 -.682 14.158l-9.19 9.189a21.013 21.013 0 0 1 2.326-30.485zm29.577 29.577a21.013 21.013 0 0 1 -30.488 2.326l9.19-9.19a10.527 10.527 0 0 0 14.157-.681l9.5-9.529 6.322 6.323zm9.948-12.316-6.173-6.173 4.237-4.249 5.727 5.728z"/><path d="m62.091 23.9a1 1 0 0 0 -1.264.632l-.9 2.707-1.687-1.68a1 1 0 0 0 -1.656.391l-1.415 4.243a1 1 0 0 0 1.9.632l.9-2.707 1.685 1.682a1 1 0 0 0 1.656-.391l1.414-4.242a1 1 0 0 0 -.633-1.267z"/><path d="m32.542 8.2a1 1 0 0 0 1.265.632l4.242-1.413a1 1 0 0 0 .392-1.656l-1.685-1.687 2.708-.9a1 1 0 0 0 .636-1.267 1 1 0 0 0 -1.264-.633l-4.247 1.414a1 1 0 0 0 -.389 1.655l1.682 1.685-2.707.9a1 1 0 0 0 -.633 1.27z"/></svg>