<svg id="Layer_5" enable-background="new 0 0 64 64" height="512" viewBox="0 0 64 64" width="512" xmlns="http://www.w3.org/2000/svg"><g><g><g><path d="m34 6-.45 4.02v.01l-.55 4.97-.81-.81-1.69-1.69-9.84 9.84c-.38-.21-.82-.34-1.29-.34h-2.74c-1.36 0-2.48 1.04-2.62 2.36-2.15.5-4.09 1.54-5.67 2.98l-.01-.01-2.33-2.33 10-10 3 3 8.5-8.5-2.5-2.5z" fill="#b4dd7f"/></g><g><path d="m55.41 52.59c.37.36.59.86.59 1.41s-.22 1.05-.59 1.41c-.36.37-.86.59-1.41.59-1.1 0-2-.9-2-2 0-.55.22-1.05.59-1.41.36-.37.86-.59 1.41-.59s1.05.22 1.41.59z" fill="#ecc19c"/></g><g><path d="m29.64 34c.2.78.31 1.6.35 2.43.32 7.44-5.62 13.57-12.99 13.57h-1-.72c-2.16 0-4.18-.72-5.81-1.95-1.64-1.23-2.88-2.98-3.47-5.05h-2c-1.1 0-2-.9-2-2v-4c0-1.1.9-2 2-2h.17c.47-3.04 1.98-5.72 4.17-7.66 1.58-1.44 3.52-2.48 5.67-2.98-.01.09-.01.18-.01.27 0 .25.03.49.1.72l1.35 4.74c.33 1.13 1.36 1.91 2.53 1.91h.04c1.17 0 2.2-.78 2.53-1.91l1.35-4.74c.03-.11.06-.23.08-.34 3.78 1.6 6.69 4.95 7.66 8.99z" fill="#f0d0b4"/></g><g><path d="m29.64 34h9.98c.37 0 .73.02 1.08.05l4.75 7.12c.34.52.93.83 1.55.83s1.21-.31 1.55-.83l1.28-1.92h.01c1.33 1.88 2.13 4.15 2.16 6.62v1.13.75c0 4.85-3.3 9.07-8 10.25v2c0 1.1-.9 2-2 2h-2c-1.1 0-2-.9-2-2v-2h-10v2c0 1.1-.9 2-2 2h-2c-1.1 0-2-.9-2-2v-2.26c-3.45-.89-6-4.01-6-7.74h1c7.37 0 13.31-6.13 12.99-13.57-.04-.83-.15-1.65-.35-2.43z" fill="#f0d0b4"/></g><g><path d="m21.98 25.01c-.02.11-.05.23-.08.34l-1.35 4.74c-.33 1.13-1.36 1.91-2.53 1.91h-.04c-1.17 0-2.2-.78-2.53-1.91l-1.35-4.74c-.07-.23-.1-.47-.1-.72 0-.09 0-.18.01-.27.14-1.32 1.26-2.36 2.62-2.36h2.74c.47 0 .91.13 1.29.34.21.12.4.26.57.43.47.48.77 1.13.77 1.86 0 .13-.01.25-.02.38z" fill="#dfb28b"/></g><g><circle cx="11" cy="34" fill="#656d78" r="2"/></g><g><path d="m62 16.58c0 2.88-.85 5.7-2.45 8.09l-9.72 14.58-1.28 1.92c-.34.52-.93.83-1.55.83s-1.21-.31-1.55-.83l-4.75-7.12-6.25-9.38c-1.6-2.39-2.45-5.21-2.45-8.09 0-.81.07-1.61.19-2.39l.81.81.55-4.97v-.01c2.41-4.75 7.34-8.02 13.03-8.02h.84c4.02 0 7.67 1.63 10.31 4.27s4.27 6.29 4.27 10.31z" fill="#ff826e"/></g><g><circle cx="47" cy="17" fill="#ffeaa7" r="11"/></g></g><g><path d="m47 5c-6.617 0-12 5.383-12 12s5.383 12 12 12 12-5.383 12-12-5.383-12-12-12zm0 22c-5.514 0-10-4.486-10-10s4.486-10 10-10 10 4.486 10 10-4.486 10-10 10z"/><path d="m38.515 16h16.971v2h-16.971z" transform="matrix(.707 -.707 .707 .707 1.745 38.213)"/><path d="m50 18c-1.654 0-3 1.346-3 3s1.346 3 3 3 3-1.346 3-3-1.346-3-3-3zm0 4c-.552 0-1-.449-1-1s.448-1 1-1 1 .449 1 1-.448 1-1 1z"/><path d="m43 17c1.654 0 3-1.346 3-3s-1.346-3-3-3-3 1.346-3 3 1.346 3 3 3zm0-4c.552 0 1 .449 1 1s-.448 1-1 1-1-.449-1-1 .448-1 1-1z"/><path d="m11 31c-1.654 0-3 1.346-3 3s1.346 3 3 3 3-1.346 3-3-1.346-3-3-3zm0 4c-.552 0-1-.448-1-1s.448-1 1-1 1 .448 1 1-.448 1-1 1z"/><path d="m47 47.754c0 2.24-1.33 4.251-3.39 5.121l.779 1.842c2.801-1.184 4.611-3.917 4.611-6.963v-.754h-2z"/><path d="m37 43c.552 0 1 .448 1 1h2c0-1.654-1.346-3-3-3v-2h-2v2h-3v3c0 1.654 1.346 3 3 3h2c.552 0 1 .448 1 1v1h-3c-.552 0-1-.448-1-1h-2c0 1.654 1.346 3 3 3v2h2v-2h3v-3c0-1.654-1.346-3-3-3h-2c-.552 0-1-.448-1-1v-1z"/><path d="m63 16.584c0-8.593-6.991-15.584-15.584-15.584h-.832c-4.516 0-8.686 1.916-11.597 5.17l.145-1.302-12.311 1.368 3.265 3.264-7.086 7.086-3-3-11.414 11.414 2.31 2.31c-1.765 1.842-3.023 4.166-3.573 6.768-1.33.307-2.323 1.501-2.323 2.922v4c0 1.654 1.346 3 3 3h1.274c1.496 4.089 5.4 6.9 9.787 6.991.378 3.419 2.681 6.338 5.939 7.487v1.522c0 1.654 1.346 3 3 3h2c1.654 0 3-1.346 3-3v-1h8v1c0 1.654 1.346 3 3 3h2c1.654 0 3-1.346 3-3v-1.246c2.505-.809 4.586-2.425 6-4.508v3.754c0 1.654 1.346 3 3 3h5v-2h-5c-.552 0-1-.448-1-1v-1.171c.313.11.649.171 1 .171 1.654 0 3-1.346 3-3s-1.346-3-3-3c-.351 0-.688.061-1 .171v-4.171h-.001v-1.14c-.024-2.346-.705-4.614-1.965-6.608l9.349-14.023c1.712-2.569 2.617-5.559 2.617-8.645zm-9 36.416c.552 0 1 .448 1 1s-.448 1-1 1-1-.448-1-1 .448-1 1-1zm-31.026-28.628c-.057-.792-.365-1.509-.851-2.08l8.377-8.378.644.644c-.087.67-.144 1.347-.144 2.026 0 3.086.905 6.075 2.617 8.645l5.181 7.771h-8.398c-1.131-3.729-3.811-6.898-7.426-8.628zm-1.974.259c0 .151-.021.302-.063.448l-1.354 4.737c-.198.698-.844 1.184-1.598 1.184-.725 0-1.37-.486-1.568-1.184l-1.354-4.737c-.042-.145-.063-.296-.063-.448 0-.899.732-1.631 1.632-1.631h2.736c.9 0 1.632.732 1.632 1.631zm-5-8.217 3 3 9.914-9.914-1.735-1.736 5.689-.632-.632 5.69-1.736-1.736-10.086 10.086c-.333-.101-.68-.172-1.046-.172h-2.736c-1.622 0-2.983 1.076-3.448 2.546-1.778.502-3.402 1.329-4.803 2.42l-.967-.966zm-9.038 26.312-.208-.726h-2.754c-.552 0-1-.448-1-1v-4c0-.552.448-1 1-1h1.027l.131-.847c.679-4.391 3.828-8.077 7.988-9.501l1.347 4.713c.443 1.552 1.879 2.635 3.522 2.635 1.613 0 3.05-1.083 3.492-2.634l1.122-3.928c3.721 2.004 6.18 5.823 6.36 10.033.142 3.31-1.038 6.445-3.323 8.829-2.286 2.387-5.363 3.7-8.666 3.7h-1.72c-3.842 0-7.263-2.58-8.318-6.274zm44.037 3.145v1.883c.001 4.396-2.977 8.209-7.241 9.276l-.758.19v2.78c0 .552-.448 1-1 1h-2c-.552 0-1-.448-1-1v-3h-12v3c0 .552-.448 1-1 1h-2c-.552 0-1-.448-1-1v-3.036l-.75-.194c-2.763-.712-4.769-3.016-5.166-5.774 3.82-.022 7.379-1.548 10.026-4.311 2.665-2.781 4.042-6.439 3.877-10.299-.02-.467-.072-.928-.139-1.386h8.776c.177 0 .35.016.526.026l4.465 6.697c.532.799 1.424 1.277 2.385 1.277s1.853-.478 2.387-1.277l.412-.618c.769 1.479 1.183 3.103 1.2 4.766zm-3.276-5.258c-.322.484-1.123.484-1.445 0l-10.997-16.493c-1.492-2.24-2.281-4.846-2.281-7.536 0-.055.006-.109.007-.163l.757.757.76-6.841c2.348-4.528 6.952-7.337 12.06-7.337h.832c7.49 0 13.584 6.094 13.584 13.584 0 2.69-.789 5.296-2.281 7.535z"/><path d="m25 37h2c0-2.841-1.215-5.558-3.333-7.453l-1.334 1.49c1.695 1.517 2.667 3.69 2.667 5.963z"/></g></g></svg>