<svg id="Flat" height="512" viewBox="0 0 512 512" width="512" xmlns="http://www.w3.org/2000/svg"><path d="m24 24h464a0 0 0 0 1 0 0v432a32 32 0 0 1 -32 32h-432a0 0 0 0 1 0 0v-464a0 0 0 0 1 0 0z" fill="#fbe9d8"/><circle cx="256" cy="80" fill="#ed6f6d" r="24"/><path d="m88 488 336-64v32a32 32 0 0 0 32 32z" fill="#e3d3c2"/><g fill="#bfb1a3"><path d="m216 176h-144a8 8 0 0 1 0-16h144a8 8 0 0 1 0 16z"/><path d="m440 240h-368a8 8 0 0 1 0-16h368a8 8 0 0 1 0 16z"/><path d="m440 208h-368a8 8 0 0 1 0-16h368a8 8 0 0 1 0 16z"/><path d="m440 272h-368a8 8 0 0 1 0-16h368a8 8 0 0 1 0 16z"/><path d="m440 304h-368a8 8 0 0 1 0-16h368a8 8 0 0 1 0 16z"/><path d="m440 336h-368a8 8 0 0 1 0-16h368a8 8 0 0 1 0 16z"/><path d="m312 368h-240a8 8 0 0 1 0-16h240a8 8 0 0 1 0 16z"/></g></svg>