<svg height="512" viewBox="0 0 64 64" width="512" xmlns="http://www.w3.org/2000/svg"><g id="Layer_32" data-name="Layer 32"><path d="m17.36 8.64-12.72 12.72a8.994 8.994 0 1 1 12.72-12.72z" fill="#c5c5c5"/><path d="m10.217 14.446h4.243v3.785h-4.243z" fill="#666" transform="matrix(.707 -.707 .707 .707 -7.939 13.51)"/><path d="m49.769 14.217h3.785v4.243h-3.785z" fill="#666" transform="matrix(.707 -.707 .707 .707 3.579 41.316)"/><path d="m30 6h4v4.076h-4z" fill="#666"/><path d="m6.322 7.322a8.963 8.963 0 0 0 1.318 11.038l9.72-9.72a8.963 8.963 0 0 0 -11.038-1.318z" fill="#d3d3d3"/><path d="m49.578 55.158 3.422 6.842h-3.001l-7.127-2.376h-21.744l-7.128 2.376h-3.001l3.422-6.843z" fill="#004a9e"/><circle cx="32" cy="36" fill="#0056c0" r="26"/><path d="m32 10a25.9 25.9 0 0 0 -17.355 6.645 26 26 0 0 0 36.71 36.71 26 26 0 0 0 -19.355-43.355z" fill="#0068dd"/><circle cx="32" cy="36" fill="#ffe436" r="22"/><path d="m30 16a21.9 21.9 0 0 0 -14.52 5.48 21.994 21.994 0 0 0 31.04 31.04 21.994 21.994 0 0 0 -16.52-36.52z" fill="#ffe966"/><path d="m46.64 8.64 12.72 12.72a8.994 8.994 0 1 0 -12.72-12.72z" fill="#c5c5c5"/><g fill="#fff"><path d="m31 55v2.975c.332.015.665.025 1 .025s.668-.01 1-.025v-2.975z"/><path d="m33 17v-2.975c-.332-.015-.665-.025-1-.025s-.668.01-1 .025v2.975z"/><path d="m13 35h-2.975c-.015.332-.025.665-.025 1s.01.668.025 1h2.975z"/><path d="m51 37h2.975c.015-.332.025-.665.025-1s-.01-.668-.025-1h-2.975z"/><path d="m44.728 50.142 2.1 2.1q.738-.675 1.414-1.414l-2.1-2.1z"/><path d="m19.272 21.858-2.1-2.105q-.739.675-1.415 1.415l2.105 2.1z"/><path d="m17.858 48.728-2.105 2.1q.675.739 1.414 1.414l2.1-2.1z"/><path d="m46.142 23.272 2.1-2.1q-.675-.739-1.415-1.415l-2.1 2.105z"/></g><path d="m40 38v-18a13.475 13.475 0 0 0 -6 11.211v4.789l2 2" fill="#e1e1e1"/><path d="m40 38h-4v13a2 2 0 0 0 2 2 2 2 0 0 0 2-2z" fill="#e9353f"/><path d="m25 36h4a0 0 0 0 1 0 0v15a2 2 0 0 1 -2 2 2 2 0 0 1 -2-2v-15a0 0 0 0 1 0 0z" fill="#e9353f"/><path d="m27 36v13a2 2 0 0 0 2 2v-15z" fill="#ff4b50"/><path d="m38 38v11a2 2 0 0 0 2 2v-13z" fill="#ff4b50"/><path d="m40 21.76a13.46 13.46 0 0 0 -5 10.451v4.789l1 1h4z" fill="#c5c5c5"/><path d="m24 26h6a0 0 0 0 1 0 0v3a3 3 0 0 1 -3 3 3 3 0 0 1 -3-3v-3a0 0 0 0 1 0 0z" fill="#e1e1e1"/><path d="m29 19v6h-1v-6h-2v6h-1v-6h-2v10.006a3.95 3.95 0 0 0 3 3.853v3.141h2v-3.142a4 4 0 0 0 3-3.858v-10zm-2 12a1.992 1.992 0 0 1 -2-1.994v-2.006h4v2a2 2 0 0 1 -2 2z" fill="#c5c5c5"/><path d="m62 15a9 9 0 0 0 -9-9c-.041 0-.081.006-.123.006a4.085 4.085 0 0 0 .131 5.642l7.8 7.805a8.947 8.947 0 0 0 1.192-4.453z" fill="#d3d3d3"/><rect fill="#0056c0" height="4" rx="2" width="14" x="25" y="2"/><path d="m37 2h-10a2 2 0 0 0 2 2h10a2 2 0 0 0 -2-2z" fill="#0068dd"/><path d="m32 13a23 23 0 1 0 23 23 23.026 23.026 0 0 0 -23-23zm20.949 24a20.891 20.891 0 0 1 -5.433 13.1l-1.374-1.374-1.414 1.414 1.372 1.376a20.886 20.886 0 0 1 -13.1 5.433v-1.949h-2v1.949a20.886 20.886 0 0 1 -13.1-5.433l1.374-1.374-1.414-1.414-1.376 1.372a20.891 20.891 0 0 1 -5.433-13.1h1.949v-2h-1.949a20.886 20.886 0 0 1 5.433-13.1l1.374 1.374 1.414-1.414-1.372-1.376a20.886 20.886 0 0 1 13.1-5.433v1.949h2v-1.949a20.886 20.886 0 0 1 13.1 5.433l-1.374 1.374 1.414 1.414 1.376-1.372a20.886 20.886 0 0 1 5.433 13.1h-1.949v2z"/><path d="m53 5a9.893 9.893 0 0 0 -7.069 2.935 1 1 0 0 0 0 1.412l4.155 4.153-1.342 1.342a26.869 26.869 0 0 0 -13.744-5.671v-2.171h2a3 3 0 0 0 0-6h-10a3 3 0 0 0 0 6h2v2.171a26.869 26.869 0 0 0 -13.744 5.671l-1.342-1.342 4.153-4.153a1 1 0 0 0 0-1.411 9.888 9.888 0 0 0 -7.067-2.936 10.011 10.011 0 0 0 -10 10 9.888 9.888 0 0 0 2.936 7.069 1 1 0 0 0 1.411 0l4.153-4.155 1.342 1.342a26.928 26.928 0 0 0 2.361 36.1l-3.1 6.2a1 1 0 0 0 .897 1.444h3a1 1 0 0 0 .316-.052l6.776-2.258a26.909 26.909 0 0 0 21.816 0l6.774 2.258a1 1 0 0 0 .318.052h3a1 1 0 0 0 .9-1.447l-3.1-6.2a26.927 26.927 0 0 0 2.363-36.1l1.337-1.339 4.153 4.153a1 1 0 0 0 1.412 0 9.893 9.893 0 0 0 2.935-7.067 10.011 10.011 0 0 0 -10-10zm-27-1a1 1 0 0 1 1-1h10a1 1 0 0 1 0 2h-10a1 1 0 0 1 -1-1zm5 3h2v2.025c-.332-.012-.665-.025-1-.025s-.668.013-1 .025zm-26.318 12.9a7.9 7.9 0 0 1 -1.682-4.9 8.009 8.009 0 0 1 8-8 7.9 7.9 0 0 1 4.9 1.682zm6.232-3.4 1.586-1.586 1.229 1.229q-.825.76-1.586 1.586zm2.924 44.5h-1.221l2.127-4.253a27.068 27.068 0 0 0 3.842 2.67zm37.544 0h-1.221l-4.748-1.583a26.98 26.98 0 0 0 3.842-2.669zm-19.382 0a25 25 0 1 1 25-25 25.028 25.028 0 0 1 -25 25zm19.857-43.271q-.76-.825-1.586-1.586l1.229-1.229 1.586 1.586zm7.461 2.171-11.218-11.218a7.9 7.9 0 0 1 4.9-1.682 8.009 8.009 0 0 1 8 8 7.9 7.9 0 0 1 -1.682 4.9z"/><path d="m29 25h-1v-6h-2v6h-1v-6h-2v10.006a3.95 3.95 0 0 0 3 3.853v2.141h-1a1 1 0 0 0 -1 1v15a3 3 0 0 0 6 0v-15a1 1 0 0 0 -1-1h-1v-2.142a4 4 0 0 0 3-3.858v-10h-2zm-1 26a1 1 0 0 1 -2 0v-14h2zm-1-20a1.992 1.992 0 0 1 -2-1.994v-2.006h4v2a2 2 0 0 1 -2 2z"/><path d="m40.472 19.118a1 1 0 0 0 -1.027.05 14.445 14.445 0 0 0 -6.445 12.043v4.789a1 1 0 0 0 .293.707l1.707 1.707v12.586a3 3 0 0 0 6 0v-31a1 1 0 0 0 -.528-.882zm-5.472 16.468v-4.375a12.443 12.443 0 0 1 4-9.155v14.944h-2.586zm3 16.414a1 1 0 0 1 -1-1v-12h2v12a1 1 0 0 1 -1 1z"/></g></svg>