<svg id="Capa_1" enable-background="new 0 0 512 512" height="512" viewBox="0 0 512 512" width="512" xmlns="http://www.w3.org/2000/svg"><g><path d="m256 450c-60.1 0-116.602-23.404-159.099-65.901s-65.901-98.999-65.901-159.099 23.404-116.602 65.901-159.099 98.999-65.901 159.099-65.901 116.602 23.404 159.099 65.901 65.901 98.999 65.901 159.099-23.404 116.602-65.901 159.099-98.999 65.901-159.099 65.901z" fill="#ff6c6c"/><path d="m415.099 384.099c42.497-42.497 65.901-98.999 65.901-159.099s-23.404-116.602-65.901-159.099-98.999-65.901-159.099-65.901v450c60.1 0 116.602-23.404 159.099-65.901z" fill="#ff1f3e"/><circle cx="256" cy="225" fill="#fff5f5" r="195"/><path d="m451 225c0-107.523-87.477-195-195-195v390c107.523 0 195-87.477 195-195z" fill="#ece9e8"/><path d="m319.622 219.76h30v295.617h-30z" fill="#2c0652" transform="matrix(.876 -.483 .483 .876 -135.898 207.289)"/><path d="m29.569 352.568h295.617v30h-295.617z" fill="#4b1b7a" transform="matrix(.483 -.876 .876 .483 -230.148 345.392)"/><circle cx="376" cy="265" fill="#00ff94" r="45"/><path d="m376 220v90c24.813 0 45-20.187 45-45s-20.187-45-45-45z" fill="#00dd80"/><circle cx="136" cy="265" fill="#ffe89c" r="45"/><path d="m136 220v90c24.813 0 45-20.187 45-45s-20.187-45-45-45z" fill="#ffcd00"/><circle cx="256" cy="105" fill="#ff6c6c" r="45"/><circle cx="356" cy="155" fill="#ffe89c" r="45"/><path d="m356 110v90c24.813 0 45-20.187 45-45s-20.187-45-45-45z" fill="#ffcd00"/><path d="m128.821 194.673h-.001c-7.784-2.835-11.796-11.443-8.961-19.227 8.718-23.936 23.573-45.195 42.959-61.481 6.343-5.329 15.805-4.506 21.134 1.837 5.329 6.343 4.506 15.805-1.837 21.134-15.366 12.908-27.146 29.775-34.066 48.776v.001c-2.836 7.783-11.444 11.795-19.228 8.96z" fill="#613394"/><circle cx="256" cy="225" fill="#613394" r="45"/><path d="m301 105c0-24.813-20.187-45-45-45v90c24.813 0 45-20.187 45-45z" fill="#ff1f3e"/><path d="m301 225c0-24.813-20.187-45-45-45v90c24.813 0 45-20.187 45-45z" fill="#4b1b7a"/><path d="m497 512h-482c-8.284 0-15-6.716-15-15s6.716-15 15-15h482c8.284 0 15 6.716 15 15s-6.716 15-15 15z" fill="#613394"/><path d="m497 482h-241v30h241c8.284 0 15-6.716 15-15s-6.716-15-15-15z" fill="#4b1b7a"/></g></svg>