<svg id="Capa_1" enable-background="new 0 0 512 512" height="512" viewBox="0 0 512 512" width="512" xmlns="http://www.w3.org/2000/svg"><g><g><g><g><circle cx="261.5" cy="267" fill="#d4f2f6" r="245"/></g></g><g><g><circle cx="261.5" cy="267" fill="#a6e7f0" r="215"/></g></g><g><path d="m235.436 42v32.756c8.528-1.15 17.226-1.756 26.064-1.756s17.536.606 26.064 1.756v-32.756z" fill="#978ecb"/><g><path d="m260.5 42h-25.064v32.756c8.206-1.107 16.57-1.704 25.064-1.748z" fill="#8379c1"/></g><g><path d="m414.886 148.364 13.897-13.897c5.858-5.858 5.858-15.355 0-21.213l-15.646-15.646c-5.858-5.858-15.355-5.858-21.213 0l-14.176 14.175c13.955 10.477 26.45 22.794 37.138 36.581z" fill="#fe4fb7"/><path d="m391.924 114.393c5.858-5.858 15.355-5.858 21.213 0l15.646 15.646c.69.69 1.292 1.434 1.819 2.213 3.95-5.835 3.349-13.832-1.819-19l-15.646-15.646c-5.858-5.858-15.355-5.858-21.213 0l-14.176 14.175c3.186 2.392 6.286 4.892 9.315 7.472z" fill="#fe2aa8"/><path d="m108.114 148.364c10.688-13.786 23.183-26.104 37.138-36.581l-14.176-14.175c-5.858-5.858-15.355-5.858-21.213 0l-15.646 15.646c-5.858 5.858-5.858 15.355 0 21.213z" fill="#05e39c"/><path d="m110.893 134.466c-5.858-5.858-5.858-15.355 0-21.213l15.646-15.646c.707-.707 1.468-1.324 2.268-1.86-5.83-3.908-13.794-3.292-18.945 1.86l-15.646 15.646c-5.858 5.858-5.858 15.355 0 21.213l13.897 13.897c2.421-3.123 4.947-6.159 7.55-9.127z" fill="#0ed290"/></g><g><path d="m299.5 0h-76c-3.866 0-7 3.134-7 7v29c0 3.866 3.134 7 7 7h76c3.866 0 7-3.134 7-7v-29c0-3.866-3.134-7-7-7z" fill="#8379c1"/></g><path d="m248.5 36v-29c0-3.866 3.134-7 7-7h-32c-3.866 0-7 3.134-7 7v29c0 3.866 3.134 7 7 7h32c-3.866 0-7-3.134-7-7z" fill="#6e61b6"/></g><path d="m261.5 72c-93.275 0-171.239 65.494-190.45 153h134.973c7.72 0 14 6.28 14 14v56c0 7.72-6.28 14-14 14h-134.973c19.211 87.506 97.176 153 190.45 153 107.696 0 195-87.305 195-195s-87.304-195-195-195z" fill="#8379c1"/><g fill="#6e61b6"><path d="m95.04 225c18.38-83.722 90.558-147.284 178.46-152.622-3.97-.241-7.969-.378-12-.378-93.275 0-171.239 65.494-190.45 153z"/><path d="m95.04 309h-23.99c19.211 87.506 97.176 153 190.45 153 4.031 0 8.03-.137 12-.378-87.902-5.338-160.079-68.9-178.46-152.622z"/></g><path d="m261.5 122.133c-65.279 0-120.604 43.405-138.651 102.867h83.173c7.72 0 14 6.28 14 14v56c0 7.72-6.28 14-14 14h-83.173c18.047 59.462 73.372 102.867 138.651 102.867 79.88 0 144.867-64.987 144.867-144.867s-64.987-144.867-144.867-144.867z" fill="#fe4fb7"/><path d="m338.841 389.441c6.139-3.892 11.971-8.226 17.441-12.969l-67.603-107.025c-1.01-1.598-1.545-3.45-1.545-5.341l.003-139.702c-8.322-1.492-16.888-2.271-25.633-2.272l-.004 144.868z" fill="#fe2aa8"/><path d="m261.5 267 .003-144.867c-.001 0-.002 0-.003 0-65.279 0-120.604 43.405-138.651 102.867h83.173c7.72 0 14 6.28 14 14v56c0 7.72-6.28 14-14 14h-83.173c18.047 59.462 73.372 102.867 138.651 102.867 28.418 0 54.948-8.232 77.341-22.427z" fill="#05e39c"/><g fill="#0ed290"><path d="m158.308 225c14.323-48.96 52.952-87.975 101.688-102.848-64.623.662-119.24 43.847-137.148 102.848z"/><path d="m158.308 309h-35.46c17.909 59.004 72.53 102.19 137.155 102.848-48.739-14.87-87.372-53.885-101.695-102.848z"/></g><g fill="#dcf5f8"><path d="m191.95 161.536c1.381 2.391 4.439 3.211 6.83 1.83l4.33-2.5c2.391-1.381 3.211-4.439 1.83-6.83l-9.273-16.062c-4.465 2.287-8.792 4.806-12.974 7.528z"/><path d="m269 411.675v-18.566c0-2.761-2.239-5-5-5h-5c-2.761 0-5 2.239-5 5v18.566c2.484.127 4.985.192 7.5.192s5.016-.065 7.5-.192z"/><path d="m204.94 379.964c1.381-2.391.561-5.449-1.83-6.83l-4.33-2.5c-2.391-1.381-5.449-.561-6.83 1.83l-9.257 16.034c4.182 2.722 8.509 5.241 12.974 7.528z"/><path d="m157.866 329.72-2.5-4.33c-1.381-2.391-4.439-3.211-6.83-1.83l-16.062 9.273c2.287 4.465 4.806 8.792 7.528 12.974l16.034-9.257c2.391-1.381 3.211-4.439 1.83-6.83z"/><path d="m382.609 264.5v5c0 2.761 2.239 5 5 5h18.565c.127-2.484.192-4.985.192-7.5s-.065-5.016-.192-7.5h-18.565c-2.761 0-5 2.239-5 5z"/><path d="m374.464 323.56c-2.391-1.381-5.449-.561-6.83 1.83l-2.5 4.33c-1.381 2.391-.561 5.449 1.83 6.83l16.034 9.257c2.722-4.183 5.24-8.509 7.528-12.974z"/><path d="m319.89 160.866 4.33 2.5c2.391 1.381 5.449.561 6.83-1.83l9.257-16.034c-4.183-2.722-8.51-5.241-12.974-7.528l-9.273 16.062c-1.381 2.392-.562 5.449 1.83 6.83z"/><path d="m254 122.325v18.566c0 2.761 2.239 5 5 5h5c2.761 0 5-2.239 5-5v-18.566c-2.484-.127-4.985-.192-7.5-.192s-5.016.065-7.5.192z"/><path d="m365.134 204.28 2.5 4.33c1.381 2.391 4.439 3.211 6.83 1.83l16.062-9.273c-2.287-4.465-4.806-8.792-7.528-12.974l-16.034 9.257c-2.391 1.381-3.211 4.439-1.83 6.83z"/><path d="m148.536 210.44c2.391 1.381 5.449.561 6.83-1.83l2.5-4.33c1.381-2.391.561-5.449-1.83-6.83l-16.034-9.257c-2.722 4.183-5.241 8.509-7.528 12.974z"/><path d="m331.05 372.464c-1.381-2.391-4.439-3.211-6.83-1.83l-4.33 2.5c-2.391 1.381-3.211 4.439-1.83 6.83l9.273 16.062c4.465-2.287 8.792-4.806 12.974-7.528z"/></g><path d="m261.5 108.133c-73.065 0-134.757 49.584-153.221 116.867h15.614c18.014-58.903 72.885-101.867 137.607-101.867 79.328 0 143.867 64.539 143.867 143.867s-64.539 143.867-143.867 143.867c-64.722 0-119.593-42.964-137.607-101.867h-15.614c18.464 67.283 80.156 116.867 153.221 116.867 87.6 0 158.867-71.268 158.867-158.867s-71.267-158.867-158.867-158.867z" fill="#978ecb"/><g fill="#6354b1"><path d="m261.5 288.229c-2.643 0-5.164-.507-7.5-1.394v11.831c0 4.142 3.358 7.5 7.5 7.5s7.5-3.358 7.5-7.5v-11.831c-2.336.886-4.857 1.394-7.5 1.394z"/><path d="m261.5 245.771c2.643 0 5.164.507 7.5 1.394v-75.341c0-4.142-3.358-7.5-7.5-7.5s-7.5 3.358-7.5 7.5v75.341c2.336-.886 4.857-1.394 7.5-1.394z"/></g><g><g><circle cx="261.5" cy="267" fill="#8379c1" r="22.229"/></g></g><path d="m256.042 267c0-9.309 5.724-17.277 13.843-20.587-2.588-1.055-5.418-1.642-8.386-1.642-12.277 0-22.229 9.952-22.229 22.229s9.952 22.229 22.229 22.229c2.968 0 5.797-.586 8.386-1.642-8.118-3.31-13.843-11.278-13.843-20.587z" fill="#6e61b6"/></g><g><g><g><path d="m206.023 310h-185.523c-8.284 0-15-6.716-15-15v-56c0-8.284 6.716-15 15-15h185.523c8.284 0 15 6.716 15 15v56c0 8.284-6.716 15-15 15z" fill="#fe4fb7"/></g><path d="m39.5 295v-56c0-8.284 6.716-15 15-15h-34c-8.284 0-15 6.716-15 15v56c0 8.284 6.716 15 15 15h34c-8.284 0-15-6.716-15-15z" fill="#fe2aa8"/><g><g><g><path d="m59.623 294.063h-28.257c-1.732 0-3.42-.793-4.367-2.243-1.395-2.138-.967-4.881.857-6.498l21.482-19.045c.116-.103.236-.2.361-.291 1.763-1.286 2.924-3.233 2.924-5.416v-8.316c0-1.279-1.037-2.315-2.315-2.315h-21.135c-1.657 0-3-1.343-3-3v-4c0-1.657 1.343-3 3-3h21.135c6.802 0 12.315 5.514 12.315 12.315v8.145c0 5.333-2.55 10.366-6.835 13.524l-11.438 10.14h15.273c1.657 0 3 1.343 3 3v4c0 1.656-1.343 3-3 3z" fill="#fff"/></g></g><path d="m98.192 249.938c1.657 0 3-1.343 3-3v-4c0-1.657-1.343-3-3-3h-25.453c-2.761 0-5 2.239-5 5v20.918c0 2.761 2.239 5 5 5h15.283c1.751 0 3.17 1.419 3.17 3.17v6.867c0 1.751-1.419 3.17-3.17 3.17h-17.283c-1.657 0-3 1.343-3 3v4c0 1.657 1.343 3 3 3h17.283c7.274 0 13.17-5.896 13.17-13.17v-6.867c0-7.274-5.896-13.17-13.17-13.17h-10.283v-10.918z" fill="#fff"/><g><g><path d="m189.012 294.063h-13.072c-6.252 0-11.339-5.086-11.339-11.339v-31.447c0-6.252 5.087-11.339 11.339-11.339h13.071c6.252 0 11.339 5.086 11.339 11.339v31.447c.001 6.252-5.086 11.339-11.338 11.339zm-13.072-44.125c-.738 0-1.339.601-1.339 1.339v31.447c0 .738.601 1.339 1.339 1.339h13.071c.738 0 1.339-.601 1.339-1.339v-31.447c0-.738-.601-1.339-1.339-1.339z" fill="#fff"/></g><g><path d="m148.568 294.063h-13.071c-6.252 0-11.339-5.086-11.339-11.339v-31.447c0-6.252 5.087-11.339 11.339-11.339h13.071c6.252 0 11.339 5.086 11.339 11.339v31.447c0 6.252-5.087 11.339-11.339 11.339zm-13.071-44.125c-.738 0-1.339.601-1.339 1.339v31.447c0 .738.601 1.339 1.339 1.339h13.071c.738 0 1.339-.601 1.339-1.339v-31.447c0-.738-.601-1.339-1.339-1.339z" fill="#fff"/></g></g><g><g><path d="m114.944 262.809h-4c-1.657 0-3-1.343-3-3v-5.902c0-1.657 1.343-3 3-3h4c1.657 0 3 1.343 3 3v5.902c0 1.656-1.343 3-3 3z" fill="#fff"/></g><g><path d="m114.944 283.093h-4c-1.657 0-3-1.343-3-3v-5.902c0-1.657 1.343-3 3-3h4c1.657 0 3 1.343 3 3v5.902c0 1.657-1.343 3-3 3z" fill="#fff"/></g></g></g></g></g></g></svg>