<svg xmlns="http://www.w3.org/2000/svg" version="1.1" xmlns:xlink="http://www.w3.org/1999/xlink" xmlns:svgjs="http://svgjs.com/svgjs" width="512" height="512" x="0" y="0" viewBox="0 0 496 496" style="enable-background:new 0 0 512 512" xml:space="preserve" class=""><g><path fill="#f33b00" d="M488 248c0 132.547-107.453 240-240 240S8 380.547 8 248 115.453 8 248 8s240 107.453 240 240zm0 0" data-original="#57a4ff" class=""></path><path fill="#e97a7a" d="M248 496C111.035 496 0 384.965 0 248S111.035 0 248 0s248 111.035 248 248c-.16 136.902-111.098 247.84-248 248zm0-480C119.871 16 16 119.871 16 248s103.871 232 232 232 232-103.871 232-232c-.14-128.07-103.93-231.86-232-232zm0 0" data-original="#004fac" class=""></path></g></svg>